<svg xmlns="http://www.w3.org/2000/svg" width="1276" height="212" fill="none" viewBox="0 0 1276 212"><g clip-path="url(#clip0_1879_3597)"><path fill="#fff" d="M0 0h1276v212H0z"/><rect width="1276" height="212" fill="url(#paint0_linear_1879_3597)" rx="24"/><path fill="#FF7A4A" fill-opacity=".7" d="M960.157 63.006c7.153-1.16 12.01-7.9 10.849-15.054-1.161-7.153-7.901-12.01-15.054-10.85-7.153 1.162-12.011 7.902-10.85 15.055 1.161 7.153 7.901 12.01 15.055 10.85Z"/><path fill="#FF855A" fill-opacity=".8" d="M823.396 149.861c.347-1.117 1.905-1.158 2.309-.06l1.813 4.927a14.466 14.466 0 0 0 8.522 8.568l5.163 1.921c1.063.395 1.063 1.906 0 2.302l-5.163 1.92a14.465 14.465 0 0 0-8.522 8.569l-1.91 5.191c-.393 1.068-1.896 1.068-2.289 0l-1.911-5.191a14.465 14.465 0 0 0-8.522-8.569l-5.089-1.893c-1.071-.399-1.06-1.926.017-2.308l5.33-1.891a14.472 14.472 0 0 0 8.967-9.351l1.285-4.135Z"/><path fill="#FF8A62" fill-opacity=".8" d="M1196.31 20.541c.21-.702 1.19-.727 1.45-.037l1.14 3.096a9.09 9.09 0 0 0 5.35 5.386l3.25 1.207c.67.249.67 1.199 0 1.447l-3.25 1.208a9.09 9.09 0 0 0-5.35 5.386l-1.2 3.262c-.25.672-1.2.672-1.44 0l-1.2-3.263a9.106 9.106 0 0 0-5.36-5.385l-3.2-1.19c-.67-.251-.67-1.211.01-1.451l3.35-1.19a9.082 9.082 0 0 0 5.64-5.876l.81-2.6Z"/><path fill="#FF713E" d="M767 129.005v.119a5.911 5.911 0 0 0 5.912 5.912h.633v88.516c0 7.394 5.994 13.389 13.389 13.389h.27c7.394 0 13.389-5.994 13.389-13.389v-88.516h.633a5.91 5.91 0 0 0 5.911-5.912v-.119a5.91 5.91 0 0 0-5.911-5.912h-28.314a5.911 5.911 0 0 0-5.912 5.912Z"/><path fill="#FFC3AE" d="M795.111 117.233a1.983 1.983 0 1 0-.635-3.915 1.983 1.983 0 0 0 .635 3.915Z"/><path fill="#FFEDE6" d="M795.543 153.681a3.025 3.025 0 1 0 0-6.05 3.025 3.025 0 0 0 0 6.05Z"/><path fill="#FFF6F2" d="M793.303 177.89h-13.151v46.03a6.576 6.576 0 0 0 13.151 0v-46.03Z"/><path fill="#FF6E3B" stroke="#FF6E3B" stroke-width=".094" d="M780.772 94.684a7.43 7.43 0 1 0 14.63-2.612 7.43 7.43 0 0 0-14.63 2.612Z"/><path fill="#FF6E3B" stroke="#FF6E3B" stroke-width=".177" d="M753.661 69.212c1.357 7.601 8.619 12.664 16.221 11.308 7.601-1.356 12.664-8.618 11.308-16.22-1.356-7.602-8.618-12.665-16.22-11.309-7.602 1.357-12.665 8.619-11.309 16.22Z"/><path stroke="#FF6E3B" stroke-linecap="round" stroke-width="3.726" d="m765.197 62.77 21.118 28.602"/><path fill="#E85A27" d="M736 144.5c0-16.845-13.655-30.5-30.5-30.5S675 127.655 675 144.5V175h30.5c16.845 0 30.5-13.655 30.5-30.5Z"/><path fill="#FFB69C" d="M700.741 152.061v-.523c.01-1.794.169-3.225.476-4.292.318-1.066.78-1.928 1.385-2.584a10.604 10.604 0 0 1 2.184-1.784 14.629 14.629 0 0 0 1.708-1.277 5.541 5.541 0 0 0 1.2-1.462 3.72 3.72 0 0 0 .446-1.815c0-.707-.169-1.328-.508-1.861a3.38 3.38 0 0 0-1.369-1.231 4.077 4.077 0 0 0-1.877-.431 4.17 4.17 0 0 0-1.892.447 3.6 3.6 0 0 0-1.461 1.292c-.38.564-.585 1.266-.615 2.107h-6.277c.051-2.051.544-3.743 1.477-5.076.933-1.344 2.169-2.344 3.707-3 1.539-.667 3.236-1 5.092-1 2.041 0 3.846.338 5.415 1.015 1.569.667 2.8 1.636 3.692 2.908.892 1.272 1.338 2.805 1.338 4.599 0 1.2-.2 2.267-.599 3.2a7.787 7.787 0 0 1-1.647 2.461 12.704 12.704 0 0 1-2.507 1.923c-.81.482-1.477.985-2 1.508a5.129 5.129 0 0 0-1.154 1.815c-.246.687-.374 1.533-.384 2.538v.523h-5.83Zm3.045 9.846a3.61 3.61 0 0 1-2.63-1.077c-.718-.728-1.072-1.6-1.062-2.615-.01-1.005.344-1.867 1.062-2.585a3.614 3.614 0 0 1 2.63-1.076c.975 0 1.831.359 2.569 1.076.739.718 1.113 1.58 1.123 2.585a3.57 3.57 0 0 1-.538 1.861c-.338.554-.784 1-1.338 1.339a3.5 3.5 0 0 1-1.816.492Z"/><g opacity=".8"><path fill="#FFBEA7" d="M951.092 164.235a2.498 2.498 0 0 0-2.5-2.496h-25.504c-1.38 0-2.5 1.118-2.5 2.496a2.498 2.498 0 0 0 2.5 2.495h25.504c1.38 0 2.5-1.117 2.5-2.495ZM907.907 202.024a2.497 2.497 0 0 0 2.5 2.495h25.504c1.381 0 2.5-1.117 2.5-2.495a2.498 2.498 0 0 0-2.5-2.496h-25.504c-1.38 0-2.5 1.118-2.5 2.496Z"/><path fill="#FF855A" d="M927.626 178.122c-.278.102-7.222 2.704-14.14 8.493-9.477 7.931-14.486 18.068-14.486 29.314l10.716.001c0-8.002 3.506-15.04 10.42-20.92 5.507-4.683 11.181-6.847 11.238-6.868.278-.103 7.222-2.704 14.14-8.494 9.477-7.932 14.486-18.069 14.486-29.315 0-11.247-5.009-21.383-14.486-29.315-6.918-5.789-13.862-8.391-14.154-8.499l-.003-.001c-.148-.057-5.767-2.224-11.221-6.862-6.914-5.88-10.419-12.919-10.419-20.92a5.353 5.353 0 0 0-5.359-5.348A5.353 5.353 0 0 0 899 84.736c0 11.246 5.009 21.383 14.487 29.315 6.918 5.789 13.862 8.391 14.154 8.499l.003.001c.148.057 5.767 2.224 11.22 6.862 6.914 5.88 10.42 12.919 10.42 20.92 0 8.002-3.506 15.04-10.42 20.92-5.507 4.683-11.181 6.848-11.238 6.869Z"/><path fill="#FFBEA7" d="M907.907 136.426a2.498 2.498 0 0 0 2.5 2.496h25.504c1.381 0 2.5-1.118 2.5-2.496a2.497 2.497 0 0 0-2.5-2.495h-25.504c-1.38 0-2.5 1.117-2.5 2.495ZM944.751 150.33a2.497 2.497 0 0 0-2.5-2.495h-25.504a2.497 2.497 0 0 0-2.5 2.495 2.498 2.498 0 0 0 2.5 2.496h25.503a2.499 2.499 0 0 0 2.501-2.496Z"/><path fill="#FF855A" d="M938.864 195.007c6.913 5.88 10.419 12.918 10.419 20.92h10.716c0-11.247-5.009-21.383-14.486-29.315-6.918-5.789-13.862-8.391-14.154-8.499-.042-.015-5.717-2.18-11.223-6.863-6.915-5.88-10.42-12.918-10.42-20.92 0-8.002 3.506-15.041 10.42-20.92 5.507-4.683 11.181-6.848 11.238-6.869.278-.102 7.222-2.704 14.14-8.493C954.991 106.116 960 95.978 960 84.733a5.353 5.353 0 0 0-5.358-5.348 5.353 5.353 0 0 0-5.358 5.348c0 8.002-3.506 15.04-10.42 20.92-5.507 4.683-11.181 6.848-11.238 6.869-.278.102-7.222 2.704-14.14 8.493C904.009 128.947 899 139.084 899 150.33c0 11.246 5.009 21.383 14.486 29.315 6.918 5.79 13.863 8.391 14.154 8.499.042.016 5.717 2.18 11.224 6.863Z"/><path fill="#FFBEA7" d="M951.092 98.28a2.498 2.498 0 0 0-2.5-2.495h-25.504c-1.38 0-2.5 1.118-2.5 2.496a2.498 2.498 0 0 0 2.5 2.495h25.504c1.38 0 2.5-1.117 2.5-2.495Z"/></g><path fill="#F6F6F6" d="M1012.99 118.153c7.66-6.273 21.05-10.52 26.78-11.858l36.36-1.722 18.08 11.384 24.13 8.394a18.373 18.373 0 0 1 12.08 14.282l20.65 121.895H959.882l16.316-116.255c1.202-8.567 7.046-15.536 15.416-17.727 8.018-2.099 16.726-4.593 21.376-8.393Z"/><path fill="#F15A24" d="M1053.85 137.761c0 .031 1.49-.074 1.61.031l22.48 68.287c.22.671.28 1.386.17 2.083l-4.79 29.814a4.413 4.413 0 0 1-4.36 3.719h-34.77l-3.44-31.76a4.395 4.395 0 0 1 .12-1.615l18.82-70.559h4.16Z"/><path fill="#D1451C" d="M1051.9 145.085c-4.47-.194-8.51-10.009-9.7-14.183-.2-.736.15-1.5.86-1.782 5.4-2.145 14.98-.876 18.93.087.79.191 1.23.928 1 1.703-1.18 4.006-5.66 14.411-11.09 14.175Z"/><path fill="#C4DDE5" d="M1033.24 143.45c-8.88-23.323-8.45-35.033.07-38.246l25.19-8.909a9.319 9.319 0 0 1 10.17 2.711l6.98 8.132c6.63 9.55 1.07 26.858-7.19 37.224-.67.839-1.92.837-2.64.036l-13.62-15.296-16.09 15.009c-.92.861-2.43.519-2.87-.661Z"/><path fill="#2F2D27" d="M1086.15 121.313c-.9-5.339-11.18-17.883-14.39-21.089 18.21 5.182 61.7 23.434 68.68 33.882 13.35 16.388 32.48 88.179 40.69 125.977h-91.42c-.81-12.235-2.67-133.431-3.56-138.77ZM1024.37 120.139c.93-8.918 9.8-15.434 13.1-18.633-18.77 5.171-62.083 21.707-69.285 32.132-14.289 20.685-36.994 91.128-41.185 137.227l94.16-10.272c.84-12.208 2.66-135.08 3.21-140.454Z"/><path fill="#2F2D27" d="M1100.49 129.012c-6.94-22.049-21.53-27.247-26.04-29.213l-4.39 2.973c4.7 4.069 12.73 9.251 10.94 23.651l-19.08 133.143a2.404 2.404 0 0 0 2.38 2.752h7.06c.95 0 1.81-.558 2.2-1.425l39.61-88.451a1.814 1.814 0 0 0-1.34-2.524l-21.34-3.793 16.64-7.274c1.63-.712 2.37-2.61 1.7-4.258-3.52-8.706-5.79-17.46-8.34-25.581ZM1005.25 129.011c6.94-22.049 24.74-27.277 29.24-29.243l4.25 3.554c-4.7 4.068-15.79 8.7-14 23.1l19.08 133.142a2.404 2.404 0 0 1-2.38 2.753h-8.41c-.95 0-1.81-.558-2.2-1.425l-39.597-88.431a1.812 1.812 0 0 1 1.353-2.527l22.664-3.81-16.639-7.274c-1.629-.712-2.366-2.61-1.701-4.259 3.52-8.706 5.78-17.459 8.34-25.58Z"/><path stroke="url(#paint1_linear_1879_3597)" stroke-linecap="round" stroke-width="2.584" d="M1017.81 111.339c-7.69 9.559-17.07 25.959-22.496 41.152l14.696 8.521c.35.203.45.662.21.987-3.92 5.275-10 10.028-12.071 13.69l32.981 51.877"/><path stroke="url(#paint2_linear_1879_3597)" stroke-linecap="round" stroke-width="2.584" d="M1086.63 107.763c7.69 9.558 20.56 29.493 25.98 44.687l-20.21 2.154c3.89 5.518 13.53 15.493 15.68 19.296l-31.28 53.625"/><path stroke="#FFFAF3" stroke-width="2.346" d="M1037.34 103.457c-15.36 6.85-22.4 27.307-20.02 71.274"/><ellipse cx="11.296" cy="10.544" fill="#615E57" rx="11.296" ry="10.544" transform="matrix(.97928 .20251 -.23411 .9722 1008.2 156.663)"/><ellipse cx="4.635" cy="4.326" fill="#222" rx="4.635" ry="4.326" transform="matrix(.97928 .20251 -.23411 .9722 1013.6 164.271)"/><path stroke="#FFFAF3" stroke-width="2.292" d="m1062.76 207.984 7.97-.728c6.95-.634 12.95-5.089 15.26-11.327l8.69-23.47c2.61-7.04-.2-14.7-6.79-18.538-6.97-4.057-16.18-2.708-21.81 3.192l-17.23 18.077c-4.38 4.59-5.76 11.007-3.6 16.669l2.92 7.631"/><path fill="#121414" d="m1050.66 198.739-.8-1.024c-.64-.816-1.75-1.131-2.77-.785-1.24.42-1.99 1.685-1.72 2.922l.27 1.277c.37 1.706 2.26 2.596 3.9 1.837 1.66-.77 2.21-2.838 1.12-4.227ZM1061.56 205.72l1.45.279c1.13.219 1.98 1.115 2.06 2.187.1 1.162-.73 2.204-1.95 2.464l-1.43.307c-1.86.398-3.64-.975-3.56-2.753.07-1.642 1.7-2.82 3.43-2.484Z"/><path fill="#1B1B18" stroke="#4B4A48" stroke-linecap="round" stroke-linejoin="round" stroke-width=".08" d="m981.375 196.639-3.582-18.332-10.298 81.775h13.88v-63.443Z"/><path fill="#171612" stroke="#4B4A48" stroke-linecap="round" stroke-linejoin="round" stroke-width=".08" d="m1122.41 195.398 3.59-18.433 10.29 82.222h-13.88v-63.789Z"/><path fill="#EF8A3F" d="M1030.81 109.863c1.92-10.923 2.46-15.74 1.83-19.261l39.69 1.833 2.38 17.888c.19 1.462-.2 2.961-1.14 4.095-16.89 20.305-34.67 9.492-41.68.472-1.1-1.417-1.39-3.261-1.08-5.027Z"/><path fill="#989898" d="M1085.01 129.857c-.99-20.532-7.57-23.107-10.7-26.356 1.35-.893.07-2.568.97-3.238 2.62 2.074 12.1 8.753 13.14 27.161 1.09 7.466-.11 15.508-.98 25.048h-4.19c-.51-5.046 2.59-9.314 1.76-22.615Z"/><path stroke="#B3ADA2" stroke-linecap="round" stroke-width="6.428" d="m1064.15 157.677 2.83-2.352c5.96-4.968 14.64-5.648 21.19-1.663v0c6.81 4.142 9.55 12.236 6.6 19.487l-1.41 3.471"/><path fill="#171612" d="M1123.69 173.308c0-18.943 8.95-36.423 12.65-41.517 4.11 2.049 7.99 10.259 8.21 11.267-8.21 7.523-19.8 21.91-20.86 30.25Z"/><path fill="url(#paint3_linear_1879_3597)" d="m1085.37 24.762.83 32.218s3.97 21.085-6.33 41.354c0 0-1.36 2.973-11.03 8.648 0 0-5.29 6.358-16.58 6.318-11.4.585-16.58-6.318-16.58-6.318-9.68-5.675-11.03-8.648-11.03-8.648-4.22-8.304-6.04-16.748-6.73-23.819-3.21-8.823-1.94-13.241-1.94-13.241l3.16-36.512h66.25-.02Z"/><path fill="url(#paint4_linear_1879_3597)" d="M1063.75 102.953c.16-5.367-4.89-9.868-11.26-10.065-6.38-.196-11.68 4.006-11.84 9.369-.16 5.366 4.88 9.872 11.26 10.064 6.37.192 11.67-4.006 11.83-9.368h.01Z"/><path fill="#B55B22" d="M1059.56 74.513a.438.438 0 0 0-.42.46c.02.677-.17 1.205-.56 1.51-.3.24-.69.311-1.08.2l-.06-.013c-.7-.128-2.55-.468-3.77.773-.37.38-1.19.612-2.19.616-1.07.02-1.96-.216-2.35-.616-1.21-1.245-3.06-.9-3.76-.773l-.07.012c-.39.112-.79.04-1.09-.2-.38-.3-.57-.832-.55-1.508a.442.442 0 0 0-.43-.46.43.43 0 0 0-.45.423c-.04.96.28 1.753.89 2.234.52.412 1.2.54 1.86.356.62-.116 2.09-.38 2.97.524.72.732 1.99.868 2.74.876h.33c.76-.012 2.03-.156 2.74-.876.88-.904 2.35-.64 2.96-.524.67.188 1.34.056 1.87-.356.61-.477.92-1.27.89-2.234-.01-.24-.21-.452-.46-.424h.01-.02Z"/><path fill="#EB762E" fill-opacity=".6" d="M1064.8 87.12h-25.17c-.27 0 2.82 4.905 7.06 5.254 1.82.152 5.52-.112 5.52-.112s3.7.26 5.52.112c4.25-.34 7.34-5.255 7.07-5.255Z"/><path fill="#121414" d="M1070.17 58.43c.13-1.522-1.47-2.89-3.57-3.062-2.09-.168-3.89.924-4.01 2.445-.13 1.52 1.46 2.89 3.56 3.061 2.1.172 3.9-.924 4.02-2.445Z"/><path fill="#E7E7E5" d="M1068.39 57.105c.01-.476-.44-.872-1.01-.877-.56 0-1.02.377-1.02.857 0 .476.44.868 1.01.876.56 0 1.02-.376 1.02-.856Z"/><path fill="#42403A" d="M1029.68 50.64c-1 .02-3.34.989-5.08 1.557-1.2.388-1.23-.164-.21-.916 1.86-1.369 4.07-3.434 5.69-4.386.58-.349 1.28-.377 1.94-.256 2.83.5 7.89 1.288 10.77 2.028 1.19.309 1.57 1.533.86 2.542-.04.056-.07.104-.11.16-.77 1.068-2.02 1.309-3.3 1.008-4.61-1.084-8.76-1.777-10.57-1.736h.01ZM1073.93 50.64c-1.81-.035-5.96.653-10.58 1.737-1.27.3-2.53.06-3.29-1.008-.04-.056-.07-.104-.11-.16-.71-1.009-.33-2.233.85-2.542 2.88-.74 7.94-1.528 10.77-2.028.67-.12 1.36-.093 1.94.256 1.62.952 3.84 3.017 5.7 4.386 1.02.752.99 1.304-.21.916-1.75-.572-4.08-1.537-5.08-1.556h.01Z"/><path fill="#121414" d="M1038.2 60.927c2.09-.232 3.65-1.653 3.48-3.165-.18-1.513-2-2.553-4.09-2.321-2.1.232-3.65 1.652-3.48 3.165.17 1.513 2 2.553 4.09 2.317v.004Z"/><path fill="#E7E7E5" d="M1040.1 56.7c0-.477-.45-.873-1.01-.88-.56 0-1.03.376-1.03.856-.01.476.45.872 1.01.876.56 0 1.02-.376 1.03-.856v.004Z"/><path fill="#42403A" d="m1056.72 81.708 10.16 2.242c.55.12.51.92-.05 1.012-4.18 1.02-12.54.64-12.54.64-1.61-.08-1.59-1.648-1.59-1.648-.16-2.726 2.96-2.486 4.02-2.25v.004ZM1051.83 83.965s.01 1.568-1.59 1.648c0 0-8.36.377-12.54-.64-.56-.096-.6-.892-.05-1.012l10.16-2.241c1.05-.233 4.18-.473 4.02 2.249v-.004Z"/><path fill="#B55B22" d="M1054.21 96.251h-3.99a.441.441 0 0 1-.44-.44c0-.244.19-.44.44-.44h3.99c.24 0 .44.196.44.44s-.19.44-.44.44Z"/><path fill="#F19E5A" d="M1018.16 71.554a3.97 3.97 0 0 1-.42-5.37l.16-.212c-2.02-10.893-5.73-9.436-5.73-9.436-2.44.792-3.85 3.049-3.09 8.323 1.12 7.22 4.9 15.923 7.99 14.23.69-.376 1.08-1.144 1.08-1.928v-5.61l.01.003Z"/><path fill="#B55B22" d="M1015.23 67.18h.03c.24-.011.42-.22.41-.463-.26-4.69-1.89-7.144-3.36-7.144h-.01c-.65 0-1.39.524-1.45 1.97-.01.243.18.451.42.455.24.008.46-.176.46-.42.04-.68.26-1.128.58-1.128.74 0 2.24 1.844 2.49 6.315.01.24.2.416.44.416h-.01Z"/><path fill="#F19E5A" d="M1085.49 77.157c0 .784.38 1.552 1.08 1.928 3.09 1.69 6.87-7.01 7.99-14.226.77-5.27-.64-7.527-3.09-8.323 0 0-3.7-1.457-5.73 9.436l.17.212a3.981 3.981 0 0 1-.42 5.37v5.61-.007Z"/><path fill="#B55B22" d="M1088.41 67.166h-.03a.432.432 0 0 1-.41-.464c.26-4.69 1.89-7.143 3.36-7.143h.01c.66 0 1.38.524 1.44 1.969a.42.42 0 0 1-.41.456.437.437 0 0 1-.46-.42c-.03-.68-.26-1.129-.57-1.129-.75 0-2.25 1.845-2.49 6.315a.437.437 0 0 1-.44.416Z"/><path fill="#262626" d="m1087.35 60.902 5.07-17.52c.87-3.213 1.84-7.511 1.29-10.797-1.17-7.007-4.75-9.26-4.85-9.26-.76-3.958-3-6.675-6.11-9.136l-1.87-1.512c-6.86-5.435-17.87-7.736-28.98-7.676-17.26.704-30.84 7.14-33.04 17.688 0 0-12.58 4.566-3.5 34.563 1.68 5.074 1.68 4.886 1.89 5.346.38.513.96.725 1.52.46.26-.148.53-.404.64-.748l.73-5.054c.27-.82.32-1.689.18-2.541-.39-2.333-.76-7.171.11-12.318.6-3.59 2.15-6.975 4.6-9.664 3.33-3.65 7.02-4.834 10.26-5.474 4.33-.692 5.73.124 8.93 1.28 1.57.569 4.4 1.365 7.68 1.297 3.27.068 6.1-.728 7.68-1.297 3.2-1.152 4.6-1.972 8.92-1.28 7.78 1.248 13.57 7.451 14.87 15.135.87 5.146.5 9.984.1 12.317a5.34 5.34 0 0 0 .19 2.541l.65 4.286.12.788c.11.344.33.588.59.736.64.369 1.47.032 1.75-.656.2-.496.49-1.232.57-1.512"/><g opacity=".7"><path fill="url(#paint5_linear_1879_3597)" d="M1093.46 31.282c-.98-4.526-3.12-7.263-4.6-7.96-1.36 7.243-3.37 11.605-7.05 13.986.88 2.337 1.1 2.645 1.57 5.039.87 5.146.5 9.984.1 12.321a5.34 5.34 0 0 0 .19 2.541l.64 4.29.13.828c.11.345.33.589.58.737.65.368 1.5.036 1.77-.693.2-.496.48-1.236.56-1.516 3.76-12.946 6.54-20.81 6.54-25.371l-.08-1.97-.35-2.232Z"/></g><g opacity=".7"><path fill="url(#paint6_linear_1879_3597)" d="M1026.98 30.933c-2.87-.616-8.23-1.597-8.12-8.244-3.67 2.073-12.13 9.116-2.3 38.153.08.28.37 1.017.57 1.513.28.688 1.05 1.032 1.7.668.26-.148.47-.392.59-.736l.12-.789.65-4.29c.27-.82.33-1.688.19-2.54-.4-2.334-.77-7.172.1-12.322.45-3.694 3.32-9.356 6.5-11.413Z"/></g><path fill="url(#paint7_linear_1879_3597)" fill-opacity=".4" d="M1040.59 27.247c-5.8-2.686-5.41-7.388-4.42-9.449 8.41-13.506 31.24-10.736 41.51-7.29 0-.013-.55-.277-.54-.289-2.38-1.288-4.49-2.073-7.19-2.937-7.96-2.461-19.14-3.206-29.08-.953-9.53 2.041-18.25 6.331-21.4 14.227-1.03 2.373-.73 4.566.5 6.542 1.81 2.934 5.36 3.718 6.91 3.826 2.23-1.893 8.03-4.87 13.7-3.69h.02v.012h-.01Z"/><path fill="url(#paint8_linear_1879_3597)" d="M1029.39 29.34c-12.69 6.87-9.02 25.407-9.02 25.407l10.6-9.036a.83.83 0 0 0 .29-.72c-.21-2.09-1.14-11.17-1.87-15.651Z" opacity=".85"/><path fill="#B55B22" d="M1045.77 88.045c-2.08 0-4.5-.284-6.78-.969a.41.41 0 0 1-.28-.52c.07-.224.3-.348.52-.28 3.77 1.128 8.06 1.12 10.18.54.44-.12.96-.084 1.5.104.78.272 2.16.324 3.5-.164.33-.12.67-.148.99-.076 2.35.512 4.71.836 9.96-.44.23-.056.46.084.51.308a.415.415 0 0 1-.31.508c-5.42 1.32-7.89.98-10.34.445a.944.944 0 0 0-.52.043c-1.34.493-2.93.56-4.06.173-.26-.092-.65-.18-1-.084-.98.268-2.33.42-3.86.42l-.01-.008Z"/><path fill="url(#paint9_linear_1879_3597)" d="M1074.38 29.34c12.83 6.579 9.03 25.407 9.03 25.407l-10.61-9.036a.858.858 0 0 1-.29-.72c.21-2.09 1.14-11.17 1.87-15.651Z" opacity=".85"/><g opacity=".4"><path fill="#D9D9D9" d="m1021.72 66.814-.9-9.408c-.13-1.44 1-2.69 2.44-2.69h18.42c1.05 0 2.08.22 3.03.65l1.55.691a5.059 5.059 0 0 1 2.84 5.815l-1.2 4.87a7.447 7.447 0 0 1-2.4 3.902l-.25.208a7.415 7.415 0 0 1-4.83 1.785h-12.06c-1.04 0-2.06-.313-2.92-.893l-.19-.128a11.265 11.265 0 0 1-2.57-2.389 4.643 4.643 0 0 1-.96-2.417v.004Z"/></g><g opacity=".4"><path fill="#D9D9D9" d="m1082.14 66.786.6-9.576a2.33 2.33 0 0 0-2.33-2.485h-18.18c-1.05 0-2.09.22-3.04.648l-1.55.692a5.059 5.059 0 0 0-2.84 5.815l1.2 4.87a7.51 7.51 0 0 0 2.4 3.902l.25.208a7.435 7.435 0 0 0 4.83 1.784h12.06c1.04 0 2.06-.312 2.93-.892l.22-.156c.95-.64 1.8-1.425 2.5-2.325.57-.716.89-1.58.95-2.485Z"/></g><path fill="#000" d="M1082.56 55.043a2.906 2.906 0 0 0-2.14-.925h-18.19c-1.14 0-2.24.236-3.29.7l-1.55.693c-.17.076-.33.164-.49.256-.75.244-1.53.372-2.33.372h-5.35c-.72 0-1.43-.108-2.12-.312-.19-.112-.38-.22-.59-.316l-1.55-.693a8.02 8.02 0 0 0-3.28-.7h-18.42c-.86 0-1.68.364-2.26 1a3.066 3.066 0 0 0-.78 2.35l.89 9.412c.1.996.47 1.94 1.09 2.733.77.976 1.68 1.825 2.71 2.521l.19.124c.97.652 2.1.996 3.26.996h12.06c1.91 0 3.77-.684 5.23-1.932l.24-.208a7.978 7.978 0 0 0 2.6-4.218l1.2-4.87a5.57 5.57 0 0 0-.13-3.114 4.768 4.768 0 0 1 4.8-.096 5.633 5.633 0 0 0-.15 3.21l1.19 4.87a8.087 8.087 0 0 0 2.6 4.218l.24.212a8.095 8.095 0 0 0 5.23 1.928h12.06a5.83 5.83 0 0 0 3.26-.996l.23-.152c1-.676 1.89-1.5 2.64-2.453a5.105 5.105 0 0 0 1.08-2.821l.01-.164.6-9.42a2.972 2.972 0 0 0-.79-2.201v-.004Zm-34.04 6.69-1.2 4.875a6.807 6.807 0 0 1-2.21 3.585l-.24.208a6.87 6.87 0 0 1-4.45 1.641h-12.05c-.93 0-1.82-.272-2.59-.792l-.19-.124a10.415 10.415 0 0 1-2.43-2.261c-.48-.6-.76-1.317-.84-2.073l-.9-9.44c-.05-.525.12-1.033.48-1.421.35-.388.84-.604 1.36-.604h18.41c.97 0 1.91.2 2.79.596l1.55.692a4.435 4.435 0 0 1 2.5 5.118h.01Zm33.01 5.01v.1c-.07.753-.35 1.461-.81 2.058-.68.852-1.47 1.592-2.37 2.197l-.23.152c-.77.516-1.66.792-2.58.792h-12.06c-1.63 0-3.2-.584-4.44-1.64l-.25-.213a6.87 6.87 0 0 1-2.21-3.585l-1.19-4.87a4.436 4.436 0 0 1 2.49-5.119l1.56-.692a6.755 6.755 0 0 1 2.79-.596h18.19c.48 0 .92.192 1.25.544.33.352.5.812.47 1.296l-.61 9.577Z"/><path fill="url(#paint10_linear_1879_3597)" fill-opacity=".4" d="M1021.9 29.163s-2.86-1.2-3.05-6.363c1.18-6.77 8.33-13.634 21.53-16.355 0 0-22.34 7.764-18.47 22.718h-.01Z" opacity=".8"/><path fill="#FF855A" d="M807.041 28.912v30.986a48.437 48.437 0 0 0 31.067 45.237l4.235 1.629a12.034 12.034 0 0 0 8.754 0l4.235-1.629c18.73-7.207 31.067-25.204 31.067-45.237V28.912c0-2.403-1.384-4.56-3.542-5.538a88.423 88.423 0 0 0-36.157-7.37 88.288 88.288 0 0 0-36.158 7.37c-2.158.977-3.542 3.176-3.542 5.538h.041Z"/><path fill="#FFF6F2" d="M826.056 53.082a3 3 0 0 1 3-3h36.599a3 3 0 0 1 3 3v6.78a3 3 0 0 1-3 3h-36.599a3 3 0 0 1-3-3v-6.78Z"/><path fill="#FFF6F2" d="M850.744 35.17a3 3 0 0 1 3 3v36.6a3 3 0 0 1-3 3h-6.78a3 3 0 0 1-3-3v-36.6a3 3 0 0 1 3-3h6.78Z"/><path fill="#FF7F51" d="M1183.04 127.204v29.288c0 14.317 6.27 33.868 33.37 44.298a11.36 11.36 0 0 0 8.27 0c27.1-10.43 33.37-30.096 33.37-44.298v-29.288c0-2.271-1.31-4.31-3.35-5.234a83.614 83.614 0 0 0-34.18-6.966 83.434 83.434 0 0 0-34.17 6.966c-2.04.924-3.35 3.002-3.35 5.234h.04Z"/><path fill="#FFF6F2" d="M1223.93 170.874c-.87.939-2.09 1.439-3.37 1.439a4.69 4.69 0 0 1-3.38-1.439l-12.61-13.139c-2.88-2.878-3.6-7.289-1.78-10.918 1.37-2.722 3.94-4.63 6.94-5.099 3-.501 6.07.5 8.2 2.659l2.59 2.596 2.6-2.596a9.483 9.483 0 0 1 8.2-2.659c3 .5 5.6 2.377 6.94 5.099 1.82 3.629 1.1 8.04-1.78 10.918l-12.61 13.139h.06Z"/><path fill="#FF8053" d="M1223.93 30.657c0-.906.67-1.657 1.47-1.657h32.45c.8 0 1.47.751 1.47 1.657v9.941c0 .906-.67 1.657-1.47 1.657h-32.45c-.8 0-1.47-.75-1.47-1.657v-9.941ZM1257.1 49.987c-2.3-1.723-3.68-4.617-3.68-7.732h-23.59c0 3.115-1.38 6.009-3.68 7.732l-1.22.928c-2.46 1.856-3.93 4.949-3.93 8.263v20.408c0 3.668 2.63 6.628 5.9 6.628h29.49c3.26 0 5.9-2.96 5.9-6.628V59.178c0-3.314-1.48-6.43-3.93-8.263l-1.24-.928h-.02Z"/><path fill="#FFAE91" d="M1245.6 63.794c.14 1.37-.27 2.718-1.14 3.69-.86.972-2.06 1.436-3.28 1.281-1.22.155-2.42-.31-3.28-1.281-.87-.972-1.28-2.32-1.14-3.69 0-3.667 4.42-8.284 4.42-8.284s4.42 4.617 4.42 8.284Z"/><path fill="#FF7240" d="M1150.53 40.063c-17.93 0-32.47 14.537-32.47 32.469 0 5.761 1.51 11.173 4.14 15.865 1.16 2.065.77 4.655-.93 6.308l-7.8 7.613c-1 .979-.31 2.682 1.1 2.682h35.96c17.93 0 32.47-14.537 32.47-32.468 0-17.932-14.54-32.468-32.47-32.468Z"/><rect width="22.955" height="6.376" x="1134.68" y="61.1" fill="#C73F0E" rx="3.188"/><rect width="30.607" height="6.376" x="1134.68" y="75.126" fill="#C73F0E" rx="3.188"/><path fill="#fff" d="M46.166 63h-6.262l9.54-27.636h7.53L66.501 63h-6.26l-6.923-21.321h-.216L46.166 63Zm-.392-10.863h14.79v4.561h-14.79v-4.56Zm40.71-3.954-5.264.324a2.72 2.72 0 0 0-.58-1.214 3.08 3.08 0 0 0-1.174-.877c-.477-.225-1.048-.338-1.714-.338-.89 0-1.641.189-2.253.567-.612.369-.918.863-.918 1.484 0 .495.198.913.594 1.255.396.342 1.075.617 2.038.823l3.751.756c2.015.414 3.517 1.08 4.507 1.997.99.918 1.484 2.123 1.484 3.617 0 1.358-.4 2.55-1.2 3.576-.792 1.025-1.88 1.826-3.266 2.402-1.377.566-2.964.85-4.764.85-2.743 0-4.93-.571-6.558-1.714-1.62-1.152-2.568-2.717-2.847-4.696l5.654-.297c.17.837.585 1.475 1.241 1.916.657.432 1.498.648 2.524.648 1.007 0 1.817-.193 2.429-.58.62-.396.935-.904.944-1.525-.009-.522-.229-.95-.66-1.282-.433-.342-1.098-.603-1.998-.783l-3.59-.715c-2.024-.405-3.53-1.106-4.52-2.105-.98-.999-1.471-2.271-1.471-3.819 0-1.331.36-2.478 1.08-3.44.728-.963 1.75-1.706 3.063-2.227 1.322-.522 2.87-.783 4.642-.783 2.618 0 4.678.553 6.18 1.66 1.512 1.106 2.393 2.613 2.645 4.52Zm9.3 8.852.014-6.895h.836l6.639-7.867h6.599l-8.92 10.417H99.59l-3.806 4.346ZM90.575 63V35.364h5.749V63h-5.749Zm12.955 0-6.1-9.028 3.833-4.062 9 13.09h-6.733Zm23.868.391c-1.323 0-2.501-.23-3.536-.688-1.034-.468-1.853-1.156-2.456-2.065-.593-.917-.89-2.06-.89-3.427 0-1.152.211-2.119.634-2.901a5.142 5.142 0 0 1 1.727-1.89 8.389 8.389 0 0 1 2.483-1.08 18.933 18.933 0 0 1 2.942-.512 74.459 74.459 0 0 0 2.915-.35c.737-.118 1.273-.289 1.606-.514.332-.224.499-.557.499-.998v-.081c0-.855-.27-1.516-.81-1.984-.531-.468-1.286-.701-2.267-.701-1.034 0-1.858.229-2.469.688-.612.45-1.017 1.016-1.215 1.7l-5.317-.432c.27-1.26.801-2.348 1.593-3.265.791-.927 1.813-1.638 3.063-2.133 1.26-.503 2.717-.755 4.372-.755 1.152 0 2.254.135 3.306.405 1.062.27 2.002.688 2.821 1.255a6.106 6.106 0 0 1 1.956 2.186c.477.881.715 1.938.715 3.17V63h-5.451v-2.874h-.162a5.849 5.849 0 0 1-1.336 1.714c-.558.485-1.228.868-2.011 1.146-.782.27-1.687.405-2.712.405Zm1.646-3.967c.846 0 1.593-.166 2.24-.5a3.967 3.967 0 0 0 1.525-1.376c.369-.576.553-1.228.553-1.956v-2.2c-.18.117-.427.225-.742.324-.306.09-.652.175-1.039.256-.387.072-.774.14-1.16.203l-1.053.148c-.675.1-1.264.257-1.768.472-.503.216-.895.509-1.174.878-.279.36-.418.81-.418 1.349 0 .783.283 1.38.85 1.795.576.405 1.305.607 2.186.607Zm20.235-8.407V63h-5.749V42.273h5.479v3.657h.243a5.785 5.785 0 0 1 2.307-2.861c1.08-.71 2.389-1.066 3.927-1.066 1.44 0 2.695.315 3.765.944 1.071.63 1.903 1.53 2.497 2.7.593 1.16.89 2.545.89 4.156V63h-5.748V50.828c.009-1.268-.315-2.258-.972-2.969-.657-.72-1.561-1.08-2.712-1.08-.774 0-1.458.167-2.051.5-.585.333-1.044.819-1.377 1.457-.324.63-.49 1.39-.499 2.281Zm20.697 19.756c-.729 0-1.413-.059-2.051-.176-.63-.108-1.152-.247-1.566-.418l1.296-4.291c.675.207 1.282.32 1.822.337.548.018 1.021-.108 1.416-.378.405-.27.734-.728.986-1.376l.337-.877-7.435-21.321h6.045l4.291 15.221h.216l4.332-15.221h6.086l-8.056 22.967c-.387 1.116-.914 2.087-1.579 2.915a6.471 6.471 0 0 1-2.497 1.93c-1.007.458-2.222.688-3.643.688Zm29.741-28.5v4.318h-12.482v-4.318h12.482Zm-9.648-4.966h5.748V56.63c0 .53.081.944.243 1.241.162.288.387.49.675.607.297.117.639.176 1.026.176.27 0 .539-.023.809-.068.27-.054.477-.094.621-.121l.904 4.278c-.288.09-.693.193-1.214.31-.522.126-1.156.202-1.903.23-1.385.053-2.6-.131-3.643-.554-1.035-.423-1.84-1.08-2.416-1.97-.576-.89-.859-2.015-.85-3.374v-20.08Zm19.587 13.71V63h-5.749V35.364h5.587V45.93h.243c.468-1.224 1.223-2.182 2.267-2.875 1.043-.701 2.352-1.052 3.927-1.052 1.439 0 2.694.315 3.765.944 1.079.621 1.916 1.516 2.51 2.686.602 1.16.899 2.55.89 4.17V63h-5.748V50.828c.009-1.277-.315-2.271-.972-2.982-.648-.71-1.556-1.066-2.726-1.066-.782 0-1.475.166-2.078.5a3.538 3.538 0 0 0-1.403 1.456c-.333.63-.504 1.39-.513 2.281ZM227.62 63V42.273h5.749V63h-5.749Zm2.888-23.4c-.855 0-1.588-.282-2.2-.85-.602-.575-.904-1.263-.904-2.064 0-.792.302-1.47.904-2.038a3.098 3.098 0 0 1 2.2-.863c.855 0 1.583.288 2.186.863.612.567.918 1.246.918 2.038 0 .8-.306 1.489-.918 2.065-.603.567-1.331.85-2.186.85Zm13.214 11.417V63h-5.748V42.273h5.478v3.657h.243a5.782 5.782 0 0 1 2.308-2.861c1.079-.71 2.388-1.066 3.927-1.066 1.439 0 2.694.315 3.765.944 1.07.63 1.902 1.53 2.496 2.7.594 1.16.891 2.545.891 4.156V63h-5.749V50.828c.009-1.268-.315-2.258-.971-2.969-.657-.72-1.561-1.08-2.713-1.08-.774 0-1.457.167-2.051.5-.585.333-1.044.819-1.376 1.457-.324.63-.491 1.39-.5 2.281Zm27.228 20.187c-1.862 0-3.459-.256-4.79-.769-1.322-.503-2.375-1.192-3.158-2.064-.782-.873-1.291-1.853-1.525-2.942l5.317-.715c.162.414.419.8.769 1.16.351.36.815.648 1.39.864.585.225 1.296.337 2.132.337 1.251 0 2.281-.306 3.091-.917.818-.603 1.228-1.615 1.228-3.037V59.33h-.243c-.252.575-.63 1.12-1.134 1.632-.504.513-1.151.931-1.943 1.255-.792.324-1.736.486-2.834.486-1.556 0-2.973-.36-4.251-1.08-1.268-.728-2.28-1.84-3.036-3.332-.746-1.503-1.12-3.401-1.12-5.695 0-2.348.383-4.31 1.147-5.884.765-1.574 1.781-2.753 3.05-3.535a7.88 7.88 0 0 1 4.197-1.174c1.16 0 2.132.198 2.914.594.783.386 1.413.872 1.89 1.457.485.576.859 1.142 1.12 1.7h.216v-3.481h5.708v20.93c0 1.763-.432 3.238-1.296 4.426-.863 1.187-2.06 2.078-3.589 2.671-1.521.603-3.27.904-5.25.904Zm.122-12.82c.927 0 1.709-.228 2.348-.687.648-.468 1.142-1.134 1.484-1.997.351-.873.527-1.917.527-3.131 0-1.215-.171-2.267-.513-3.158-.342-.9-.837-1.597-1.485-2.091-.647-.495-1.434-.743-2.361-.743-.945 0-1.741.257-2.389.77-.647.503-1.138 1.205-1.47 2.105-.333.9-.5 1.938-.5 3.117 0 1.196.167 2.231.5 3.104.341.863.832 1.533 1.47 2.01.648.468 1.444.702 2.389.702Zm29.293 5.007c-1.323 0-2.501-.23-3.536-.688-1.034-.468-1.853-1.156-2.456-2.065-.594-.917-.89-2.06-.89-3.427 0-1.152.211-2.119.634-2.901a5.133 5.133 0 0 1 1.727-1.89 8.377 8.377 0 0 1 2.483-1.08 18.933 18.933 0 0 1 2.942-.512 74.698 74.698 0 0 0 2.915-.35c.737-.118 1.273-.289 1.605-.514.333-.224.5-.557.5-.998v-.081c0-.855-.27-1.516-.81-1.984-.531-.468-1.286-.701-2.267-.701-1.035 0-1.858.229-2.469.688-.612.45-1.017 1.016-1.215 1.7l-5.317-.432c.27-1.26.801-2.348 1.593-3.265.791-.927 1.812-1.638 3.063-2.133 1.259-.503 2.717-.755 4.372-.755 1.152 0 2.254.135 3.306.405 1.062.27 2.002.688 2.82 1.255a6.1 6.1 0 0 1 1.957 2.186c.477.881.715 1.938.715 3.17V63h-5.451v-2.874h-.162a5.866 5.866 0 0 1-1.336 1.714c-.558.485-1.228.868-2.011 1.146-.783.27-1.687.405-2.712.405Zm1.646-3.967c.846 0 1.592-.166 2.24-.5a3.967 3.967 0 0 0 1.525-1.376c.369-.576.553-1.228.553-1.956v-2.2c-.18.117-.427.225-.742.324-.306.09-.652.175-1.039.256-.387.072-.774.14-1.161.203l-1.052.148c-.675.1-1.264.257-1.768.472-.504.216-.895.509-1.174.878-.279.36-.418.81-.418 1.349 0 .783.283 1.38.85 1.795.576.405 1.304.607 2.186.607ZM316.605 63V35.364h5.749v10.39h.175c.252-.557.616-1.124 1.093-1.7.486-.585 1.116-1.07 1.889-1.457.783-.396 1.755-.594 2.915-.594 1.512 0 2.906.396 4.183 1.187 1.278.783 2.299 1.966 3.064 3.55.764 1.574 1.147 3.548 1.147 5.923 0 2.312-.374 4.265-1.12 5.857-.738 1.583-1.746 2.784-3.023 3.603-1.269.81-2.69 1.214-4.264 1.214-1.116 0-2.065-.184-2.848-.553-.773-.369-1.408-.832-1.902-1.39-.495-.567-.873-1.138-1.134-1.714h-.256V63h-5.668Zm5.627-10.364c0 1.233.171 2.308.513 3.225.342.918.837 1.633 1.484 2.146.648.504 1.435.756 2.362.756.936 0 1.727-.257 2.375-.77.648-.521 1.138-1.24 1.471-2.159.342-.926.513-1.992.513-3.198 0-1.196-.167-2.249-.5-3.157-.333-.909-.823-1.62-1.471-2.132-.647-.513-1.443-.77-2.388-.77-.936 0-1.727.248-2.375.743-.639.494-1.129 1.196-1.471 2.105-.342.908-.513 1.979-.513 3.211Zm27.788 10.769c-2.096 0-3.908-.446-5.438-1.336-1.52-.9-2.694-2.15-3.522-3.752-.827-1.61-1.241-3.477-1.241-5.6 0-2.14.414-4.012 1.241-5.613.828-1.61 2.002-2.861 3.522-3.752 1.53-.9 3.342-1.35 5.438-1.35 2.097 0 3.905.45 5.425 1.35 1.529.89 2.708 2.141 3.536 3.752.827 1.601 1.241 3.472 1.241 5.613 0 2.123-.414 3.99-1.241 5.6-.828 1.602-2.007 2.852-3.536 3.752-1.52.89-3.328 1.336-5.425 1.336Zm.027-4.453c.954 0 1.75-.27 2.389-.81.639-.549 1.12-1.295 1.444-2.24.333-.945.499-2.02.499-3.225 0-1.206-.166-2.28-.499-3.225-.324-.945-.805-1.692-1.444-2.24-.639-.55-1.435-.824-2.389-.824-.962 0-1.772.275-2.429.824-.647.548-1.138 1.295-1.47 2.24-.324.944-.486 2.02-.486 3.225s.162 2.28.486 3.225c.332.945.823 1.691 1.47 2.24.657.54 1.467.81 2.429.81Zm27.205-4.777V42.273h5.749V63h-5.52v-3.765h-.216a6.118 6.118 0 0 1-2.334 2.928c-1.08.738-2.398 1.107-3.954 1.107-1.385 0-2.604-.315-3.657-.945-1.052-.63-1.876-1.525-2.469-2.685-.585-1.16-.882-2.55-.891-4.17V42.273h5.749v12.172c.009 1.223.337 2.19.985 2.9.647.712 1.516 1.067 2.604 1.067.693 0 1.341-.157 1.943-.472a3.708 3.708 0 0 0 1.458-1.43c.378-.63.562-1.409.553-2.335Zm21.372-11.902v4.318h-12.483v-4.318h12.483Zm-9.649-4.966h5.749V56.63c0 .53.081.944.243 1.241.162.288.386.49.674.607.297.117.639.176 1.026.176.27 0 .54-.023.81-.068a52.9 52.9 0 0 1 .62-.121l.904 4.278c-.287.09-.692.193-1.214.31-.522.126-1.156.202-1.903.23-1.385.053-2.6-.131-3.643-.554-1.035-.423-1.84-1.08-2.416-1.97-.575-.89-.859-2.015-.85-3.374v-20.08Zm25.737 33.466c-.729 0-1.412-.059-2.051-.176-.63-.108-1.151-.247-1.565-.418l1.295-4.291c.675.207 1.282.32 1.822.337.549.018 1.021-.108 1.417-.378.405-.27.733-.728.985-1.376l.337-.877-7.435-21.321h6.045l4.292 15.221h.215l4.332-15.221h6.086l-8.056 22.967c-.387 1.116-.913 2.087-1.579 2.915a6.476 6.476 0 0 1-2.496 1.93c-1.008.458-2.222.688-3.644.688Zm27.414-7.368c-2.096 0-3.909-.446-5.438-1.336-1.521-.9-2.695-2.15-3.522-3.752-.828-1.61-1.242-3.477-1.242-5.6 0-2.14.414-4.012 1.242-5.613.827-1.61 2.001-2.861 3.522-3.752 1.529-.9 3.342-1.35 5.438-1.35 2.096 0 3.904.45 5.425 1.35 1.529.89 2.707 2.141 3.535 3.752.828 1.601 1.242 3.472 1.242 5.613 0 2.123-.414 3.99-1.242 5.6-.828 1.602-2.006 2.852-3.535 3.752-1.521.89-3.329 1.336-5.425 1.336Zm.027-4.453c.953 0 1.75-.27 2.388-.81.639-.549 1.12-1.295 1.444-2.24.333-.945.5-2.02.5-3.225 0-1.206-.167-2.28-.5-3.225-.324-.945-.805-1.692-1.444-2.24-.638-.55-1.435-.824-2.388-.824-.963 0-1.772.275-2.429.824-.648.548-1.138 1.295-1.471 2.24-.324.944-.486 2.02-.486 3.225s.162 2.28.486 3.225c.333.945.823 1.691 1.471 2.24.657.54 1.466.81 2.429.81Zm27.204-4.777V42.273h5.749V63h-5.519v-3.765h-.216a6.12 6.12 0 0 1-2.335 2.928c-1.079.738-2.397 1.107-3.953 1.107-1.386 0-2.605-.315-3.657-.945-1.053-.63-1.876-1.525-2.47-2.685-.585-1.16-.881-2.55-.89-4.17V42.273h5.748v12.172c.009 1.223.337 2.19.985 2.9.648.712 1.516 1.067 2.605 1.067.692 0 1.34-.157 1.943-.472a3.706 3.706 0 0 0 1.457-1.43c.378-.63.562-1.409.553-2.335ZM479.704 63V42.273h5.573v3.616h.216c.378-1.286 1.012-2.258 1.903-2.915.891-.665 1.916-.998 3.077-.998.288 0 .598.018.931.054.333.036.625.085.877.148v5.101a7.52 7.52 0 0 0-1.12-.216 10.057 10.057 0 0 0-1.309-.094c-.846 0-1.601.184-2.267.553a4.066 4.066 0 0 0-1.565 1.511c-.378.648-.567 1.395-.567 2.24V63h-5.749Zm30.093-11.983V63h-5.749V35.364h5.587V45.93h.242c.468-1.224 1.224-2.182 2.268-2.875 1.043-.701 2.352-1.052 3.926-1.052 1.44 0 2.695.315 3.765.944 1.08.621 1.916 1.516 2.51 2.686.603 1.16.9 2.55.891 4.17V63h-5.749V50.828c.009-1.277-.315-2.271-.971-2.982-.648-.71-1.557-1.066-2.726-1.066-.783 0-1.476.166-2.078.5a3.54 3.54 0 0 0-1.404 1.456c-.333.63-.503 1.39-.512 2.281Zm27.41 12.388c-2.132 0-3.967-.432-5.506-1.296-1.529-.872-2.708-2.105-3.535-3.697-.828-1.601-1.242-3.495-1.242-5.681 0-2.132.414-4.004 1.242-5.614.827-1.61 1.992-2.865 3.495-3.765 1.511-.9 3.283-1.35 5.316-1.35 1.368 0 2.641.221 3.819.662a8.472 8.472 0 0 1 3.104 1.957c.891.872 1.583 1.97 2.078 3.292.495 1.314.742 2.852.742 4.615v1.58h-17.502v-3.563h12.091c0-.828-.18-1.561-.54-2.2a3.859 3.859 0 0 0-1.498-1.498c-.629-.369-1.362-.553-2.199-.553-.873 0-1.646.202-2.321.607a4.248 4.248 0 0 0-1.565 1.606 4.534 4.534 0 0 0-.581 2.227v3.387c0 1.025.189 1.911.567 2.658a4.148 4.148 0 0 0 1.633 1.727c.702.405 1.534.608 2.496.608.639 0 1.224-.09 1.755-.27.53-.18.985-.45 1.363-.81.377-.36.665-.8.863-1.322l5.317.35a7.258 7.258 0 0 1-1.66 3.347c-.828.945-1.898 1.682-3.212 2.213-1.304.522-2.811.783-4.52.783Zm19.175-.014c-1.322 0-2.501-.23-3.535-.688-1.035-.468-1.853-1.156-2.456-2.065-.594-.917-.891-2.06-.891-3.427 0-1.152.212-2.119.634-2.901a5.136 5.136 0 0 1 1.728-1.89 8.366 8.366 0 0 1 2.483-1.08 18.92 18.92 0 0 1 2.941-.512 74.459 74.459 0 0 0 2.915-.35c.738-.118 1.273-.289 1.606-.514.333-.224.499-.557.499-.998v-.081c0-.855-.27-1.516-.809-1.984-.531-.468-1.287-.701-2.267-.701-1.035 0-1.858.229-2.47.688-.612.45-1.016 1.016-1.214 1.7l-5.317-.432c.27-1.26.801-2.348 1.592-3.265.792-.927 1.813-1.638 3.063-2.133 1.26-.503 2.717-.755 4.373-.755 1.151 0 2.253.135 3.306.405 1.061.27 2.001.688 2.82 1.255a6.1 6.1 0 0 1 1.957 2.186c.476.881.715 1.938.715 3.17V63h-5.452v-2.874h-.162a5.849 5.849 0 0 1-1.336 1.714c-.557.485-1.228.868-2.01 1.146-.783.27-1.687.405-2.713.405Zm1.647-3.967c.845 0 1.592-.166 2.24-.5a3.974 3.974 0 0 0 1.525-1.376 3.556 3.556 0 0 0 .553-1.956v-2.2a3.09 3.09 0 0 1-.742.324c-.306.09-.653.175-1.039.256-.387.072-.774.14-1.161.203l-1.053.148c-.674.1-1.264.257-1.767.472-.504.216-.895.509-1.174.878-.279.36-.419.81-.419 1.349 0 .783.284 1.38.851 1.795.575.405 1.304.607 2.186.607Zm20.234-24.06V63h-5.748V35.364h5.748Zm15.63 6.909v4.318h-12.482v-4.318h12.482Zm-9.648-4.966h5.748V56.63c0 .53.081.944.243 1.241.162.288.387.49.675.607.297.117.639.176 1.025.176.27 0 .54-.023.81-.068.27-.054.477-.094.621-.121l.904 4.278c-.288.09-.693.193-1.215.31-.521.126-1.156.202-1.902.23-1.386.053-2.6-.131-3.644-.554-1.034-.423-1.839-1.08-2.415-1.97-.576-.89-.859-2.015-.85-3.374v-20.08Zm19.587 13.71V63h-5.749V35.364h5.587V45.93h.243c.467-1.224 1.223-2.182 2.267-2.875 1.043-.701 2.352-1.052 3.927-1.052 1.439 0 2.694.315 3.764.944 1.08.621 1.917 1.516 2.51 2.686.603 1.16.9 2.55.891 4.17V63h-5.749V50.828c.009-1.277-.314-2.271-.971-2.982-.648-.71-1.556-1.066-2.726-1.066-.783 0-1.475.166-2.078.5a3.54 3.54 0 0 0-1.404 1.456c-.332.63-.503 1.39-.512 2.281Zm21.324 12.334a3.152 3.152 0 0 1-2.294-.945 3.151 3.151 0 0 1-.945-2.294c0-.881.315-1.637.945-2.267a3.152 3.152 0 0 1 2.294-.944c.864 0 1.619.314 2.267.944.648.63.972 1.386.972 2.267 0 .594-.153 1.138-.459 1.633a3.488 3.488 0 0 1-1.174 1.174 3.092 3.092 0 0 1-1.606.432ZM53.045 94a6.158 6.158 0 0 0-.741-1.543 4.765 4.765 0 0 0-1.082-1.176 4.544 4.544 0 0 0-1.415-.741 5.636 5.636 0 0 0-1.739-.256 5.18 5.18 0 0 0-2.82.801c-.847.534-1.52 1.321-2.02 2.361-.5 1.04-.75 2.315-.75 3.827 0 1.511.252 2.787.758 3.826.506 1.04 1.19 1.827 2.054 2.361.863.534 1.835.801 2.915.801 1 0 1.88-.213 2.642-.639a4.536 4.536 0 0 0 1.79-1.824c.431-.789.647-1.718.647-2.787l.648.137h-5.25v-1.875h6.648v1.875c0 1.437-.307 2.687-.92 3.75a6.36 6.36 0 0 1-2.524 2.471c-1.068.58-2.295.87-3.681.87-1.546 0-2.904-.364-4.074-1.091-1.165-.728-2.074-1.762-2.728-3.103-.647-1.34-.971-2.931-.971-4.772 0-1.381.184-2.622.554-3.725.375-1.108.903-2.05 1.585-2.83a6.931 6.931 0 0 1 2.42-1.789c.932-.415 1.958-.622 3.077-.622.92 0 1.779.139 2.574.417a6.91 6.91 0 0 1 2.14 1.168c.63.5 1.156 1.1 1.576 1.798.42.694.71 1.463.87 2.31h-2.183Zm11.12 12.273c-1.26 0-2.349-.279-3.264-.835-.909-.563-1.61-1.347-2.105-2.353-.489-1.011-.733-2.187-.733-3.528 0-1.341.244-2.523.733-3.546.495-1.028 1.182-1.83 2.063-2.403.886-.58 1.92-.87 3.102-.87.682 0 1.355.114 2.02.341.665.228 1.27.597 1.815 1.109.546.505.98 1.176 1.304 2.01.324.836.486 1.865.486 3.086v.852H59.495v-1.738h8.045c0-.739-.147-1.398-.443-1.977a3.34 3.34 0 0 0-1.244-1.373c-.534-.335-1.165-.502-1.892-.502-.801 0-1.494.198-2.08.596a3.925 3.925 0 0 0-1.338 1.534 4.507 4.507 0 0 0-.468 2.028v1.16c0 .988.17 1.826.51 2.514.347.682.828 1.202 1.441 1.56.614.352 1.327.528 2.14.528.528 0 1.005-.074 1.431-.222.432-.153.804-.38 1.117-.682.312-.306.554-.687.724-1.142l1.943.546a4.31 4.31 0 0 1-1.03 1.739c-.484.494-1.08.88-1.79 1.159-.71.272-1.51.409-2.396.409ZM78.34 92.909v1.705h-6.784v-1.705h6.784Zm-4.807-3.136h2.011v12.477c0 .568.083.994.247 1.278.17.279.387.466.648.563.267.091.549.136.844.136.222 0 .403-.011.545-.034l.341-.068.41 1.807a4.1 4.1 0 0 1-.572.153 4.195 4.195 0 0 1-.929.085 4.052 4.052 0 0 1-1.67-.366 3.314 3.314 0 0 1-1.347-1.116c-.352-.5-.528-1.131-.528-1.893V89.773Zm20.276 3.136v1.705h-6.785v-1.705h6.785ZM89 89.773h2.011v12.477c0 .568.082.994.247 1.278.17.279.387.466.648.563.267.091.548.136.844.136.221 0 .403-.011.545-.034l.341-.068.41 1.807a4.102 4.102 0 0 1-.572.153 4.194 4.194 0 0 1-.929.085 4.053 4.053 0 0 1-1.67-.366 3.315 3.315 0 0 1-1.347-1.116c-.352-.5-.528-1.131-.528-1.893V89.773ZM96.833 106V92.91h1.943v1.976h.137c.238-.647.67-1.173 1.295-1.576a3.814 3.814 0 0 1 2.114-.606c.147 0 .332.003.554.01.221.005.389.013.503.025v2.045a6.064 6.064 0 0 0-.469-.077 4.62 4.62 0 0 0-.759-.06c-.636 0-1.204.134-1.704.401a3.02 3.02 0 0 0-1.176 1.091 2.94 2.94 0 0 0-.427 1.577V106h-2.01Zm17.18-5.352v-7.739h2.011V106h-2.011v-2.216h-.137c-.306.665-.784 1.23-1.431 1.696-.648.46-1.466.69-2.455.69-.818 0-1.545-.179-2.182-.536-.636-.364-1.136-.91-1.5-1.637-.363-.733-.545-1.656-.545-2.77v-8.318h2.011v8.182c0 .954.267 1.716.801 2.284.54.568 1.228.852 2.063.852.5 0 1.008-.128 1.525-.383a3.328 3.328 0 0 0 1.313-1.176c.358-.529.537-1.202.537-2.02Zm14.968-4.807-1.807.511a3.355 3.355 0 0 0-.503-.878 2.44 2.44 0 0 0-.886-.716c-.375-.187-.855-.28-1.441-.28-.801 0-1.468.184-2.002.553-.529.364-.793.827-.793 1.39 0 .5.182.894.545 1.184.364.29.932.531 1.705.724l1.943.478c1.171.284 2.043.719 2.617 1.304.574.579.86 1.326.86 2.241 0 .75-.215 1.421-.647 2.012-.426.591-1.023 1.056-1.79 1.397-.767.341-1.659.512-2.676.512-1.335 0-2.441-.29-3.316-.87-.875-.579-1.428-1.426-1.661-2.539l1.909-.478c.181.705.525 1.233 1.031 1.586.511.352 1.179.528 2.003.528.937 0 1.682-.199 2.233-.597.557-.403.835-.886.835-1.448 0-.455-.159-.836-.477-1.143-.319-.312-.807-.545-1.466-.698l-2.182-.512c-1.199-.284-2.08-.724-2.642-1.32-.557-.603-.835-1.356-.835-2.26 0-.738.207-1.391.622-1.96.42-.568.991-1.014 1.713-1.338.727-.323 1.551-.485 2.471-.485 1.296 0 2.313.284 3.052.852.744.568 1.272 1.318 1.585 2.25Zm8.959-2.932v1.705h-6.784v-1.705h6.784Zm-4.806-3.136h2.011v12.477c0 .568.082.994.247 1.278.171.279.386.466.648.563.267.091.548.136.844.136.221 0 .403-.011.545-.034l.341-.068.409 1.807a4.1 4.1 0 0 1-.571.153 4.193 4.193 0 0 1-.929.085 4.05 4.05 0 0 1-1.67-.366 3.315 3.315 0 0 1-1.347-1.116c-.352-.5-.528-1.131-.528-1.893V89.773Zm13.18 16.5c-1.261 0-2.35-.279-3.264-.835-.909-.563-1.611-1.347-2.105-2.353-.489-1.011-.733-2.187-.733-3.528 0-1.341.244-2.523.733-3.546.494-1.028 1.181-1.83 2.062-2.403.886-.58 1.921-.87 3.102-.87.682 0 1.355.114 2.02.341a5.01 5.01 0 0 1 1.816 1.109c.545.505.98 1.176 1.304 2.01.323.836.485 1.865.485 3.086v.852h-10.091v-1.738h8.046c0-.739-.148-1.398-.443-1.977a3.34 3.34 0 0 0-1.245-1.373c-.534-.335-1.164-.502-1.892-.502-.801 0-1.494.198-2.079.596a3.918 3.918 0 0 0-1.338 1.534 4.5 4.5 0 0 0-.469 2.028v1.16c0 .988.17 1.826.511 2.514.347.682.827 1.202 1.441 1.56.613.352 1.326.528 2.139.528.528 0 1.006-.074 1.432-.222a3.04 3.04 0 0 0 1.116-.682c.313-.306.554-.687.725-1.142l1.943.546a4.314 4.314 0 0 1-1.031 1.739c-.483.494-1.08.88-1.79 1.159-.71.272-1.509.409-2.395.409Zm13.423 0c-1.091 0-2.054-.276-2.889-.827-.835-.557-1.489-1.341-1.96-2.352-.472-1.017-.708-2.219-.708-3.605 0-1.375.236-2.569.708-3.58.471-1.011 1.128-1.793 1.969-2.344.84-.55 1.812-.826 2.914-.826.853 0 1.526.142 2.02.426.5.278.881.596 1.142.954.267.353.475.642.622.87h.171v-6.444h2.011V106h-1.943v-2.011h-.239c-.147.238-.358.539-.63.903-.273.358-.662.679-1.168.963-.506.279-1.179.418-2.02.418Zm.273-1.807c.807 0 1.489-.21 2.045-.631.557-.426.981-1.014 1.27-1.764.29-.756.435-1.628.435-2.617 0-.977-.142-1.832-.426-2.565-.284-.738-.705-1.312-1.262-1.721-.556-.415-1.244-.623-2.062-.623-.852 0-1.563.22-2.131.657-.562.431-.986 1.02-1.27 1.764-.278.739-.417 1.568-.417 2.489 0 .931.142 1.778.426 2.539.29.756.716 1.358 1.278 1.807.568.443 1.273.665 2.114.665Zm20.293 1.841c-.83 0-1.583-.156-2.259-.469a3.882 3.882 0 0 1-1.611-1.372c-.397-.602-.596-1.33-.596-2.182 0-.75.147-1.358.443-1.824.295-.471.69-.84 1.184-1.108a6.233 6.233 0 0 1 1.637-.596 19.899 19.899 0 0 1 1.815-.324 82.224 82.224 0 0 1 1.935-.23c.5-.057.863-.15 1.091-.281.233-.131.349-.359.349-.682v-.069c0-.84-.23-1.494-.69-1.96-.455-.466-1.145-.699-2.071-.699-.96 0-1.713.21-2.259.631-.545.42-.929.87-1.15 1.347l-1.909-.682c.341-.796.795-1.415 1.363-1.858a5.112 5.112 0 0 1 1.875-.938 7.788 7.788 0 0 1 2.012-.272c.42 0 .903.05 1.449.153a4.63 4.63 0 0 1 1.593.605c.517.307.946.77 1.287 1.39.341.619.512 1.448.512 2.488V106h-2.012v-1.773h-.102c-.136.284-.364.588-.682.912-.318.324-.741.6-1.27.827-.528.227-1.173.341-1.934.341Zm.306-1.807c.796 0 1.466-.156 2.012-.469.551-.312.966-.716 1.244-1.21a3.084 3.084 0 0 0 .426-1.56v-1.84c-.085.102-.273.195-.562.28-.284.08-.614.151-.989.214a42.797 42.797 0 0 1-1.926.255 7.705 7.705 0 0 0-1.466.333c-.449.148-.812.372-1.091.673-.273.296-.409.699-.409 1.21 0 .699.259 1.228.776 1.586.522.352 1.184.528 1.985.528Zm11.376-6.375V106h-2.011V92.91h1.943v2.044h.17a3.74 3.74 0 0 1 1.398-1.602c.625-.409 1.432-.613 2.421-.613.886 0 1.661.181 2.326.545.665.358 1.182.903 1.551 1.636.37.728.554 1.648.554 2.762V106h-2.011v-8.182c0-1.028-.267-1.83-.801-2.403-.534-.58-1.267-.87-2.199-.87-.642 0-1.216.14-1.722.418-.5.279-.894.685-1.184 1.219-.29.534-.435 1.182-.435 1.943Zm21.301-2.284-1.807.511a3.384 3.384 0 0 0-.503-.878 2.444 2.444 0 0 0-.887-.716c-.375-.187-.855-.28-1.44-.28-.801 0-1.469.184-2.003.553-.528.364-.792.827-.792 1.39 0 .5.182.894.545 1.184.364.29.932.531 1.705.724l1.943.478c1.17.284 2.042.719 2.616 1.304.574.579.861 1.326.861 2.241 0 .75-.216 1.421-.648 2.012-.426.591-1.022 1.056-1.789 1.397-.767.341-1.659.512-2.676.512-1.336 0-2.441-.29-3.316-.87-.875-.579-1.429-1.426-1.662-2.539l1.909-.478c.182.705.526 1.233 1.032 1.586.511.352 1.179.528 2.002.528.938 0 1.682-.199 2.233-.597.557-.403.836-.886.836-1.448 0-.455-.159-.836-.478-1.143-.318-.312-.806-.545-1.466-.698l-2.181-.512c-1.199-.284-2.08-.724-2.642-1.32-.557-.603-.836-1.356-.836-2.26 0-.738.208-1.391.622-1.96.421-.568.992-1.014 1.714-1.338.727-.323 1.551-.485 2.471-.485 1.296 0 2.313.284 3.051.852.745.568 1.273 1.318 1.586 2.25ZM219.518 106l-3.989-13.09h2.114l2.829 10.022h.137l2.795-10.023h2.148l2.761 9.989h.137l2.829-9.989h2.114L229.404 106h-1.977l-2.864-10.057h-.204L221.495 106h-1.977Zm21.577.273c-1.261 0-2.349-.279-3.264-.835-.909-.563-1.611-1.347-2.105-2.353-.489-1.011-.733-2.187-.733-3.528 0-1.341.244-2.523.733-3.546.494-1.028 1.182-1.83 2.062-2.403.887-.58 1.921-.87 3.103-.87.681 0 1.355.114 2.02.341a5.014 5.014 0 0 1 1.815 1.109c.545.505.98 1.176 1.304 2.01.324.836.486 1.865.486 3.086v.852h-10.091v-1.738h8.045c0-.739-.148-1.398-.443-1.977a3.345 3.345 0 0 0-1.244-1.373c-.534-.335-1.165-.502-1.892-.502-.802 0-1.495.198-2.08.596a3.933 3.933 0 0 0-1.338 1.534 4.514 4.514 0 0 0-.469 2.028v1.16c0 .988.171 1.826.512 2.514.346.682.826 1.202 1.44 1.56.614.352 1.327.528 2.139.528.529 0 1.006-.074 1.432-.222a3.04 3.04 0 0 0 1.116-.682c.313-.306.554-.687.725-1.142l1.943.546a4.303 4.303 0 0 1-1.031 1.739c-.483.494-1.08.88-1.79 1.159-.71.272-1.508.409-2.395.409Zm8.48-.273V92.91h1.943v1.976h.137c.238-.647.67-1.173 1.295-1.576a3.814 3.814 0 0 1 2.114-.606c.148 0 .332.003.554.01.221.005.389.013.503.025v2.045a5.974 5.974 0 0 0-.469-.077 4.61 4.61 0 0 0-.759-.06c-.636 0-1.204.134-1.704.401a3.025 3.025 0 0 0-1.176 1.091 2.94 2.94 0 0 0-.426 1.577V106h-2.012Zm18.203-10.16-1.807.512a3.355 3.355 0 0 0-.503-.878 2.44 2.44 0 0 0-.886-.716c-.375-.187-.855-.28-1.441-.28-.801 0-1.468.184-2.003.553-.528.364-.792.827-.792 1.39 0 .5.182.894.545 1.184.364.29.932.531 1.705.724l1.943.478c1.171.284 2.043.719 2.617 1.304.573.579.86 1.326.86 2.241a3.33 3.33 0 0 1-.647 2.012c-.427.591-1.023 1.056-1.79 1.397-.767.341-1.659.512-2.676.512-1.336 0-2.441-.29-3.316-.87-.875-.579-1.429-1.426-1.662-2.539l1.91-.478c.181.705.525 1.233 1.031 1.586.511.352 1.179.528 2.003.528.937 0 1.681-.199 2.233-.597.556-.403.835-.886.835-1.448 0-.455-.159-.836-.477-1.143-.319-.312-.807-.545-1.466-.698l-2.182-.512c-1.199-.284-2.08-.724-2.642-1.32-.557-.603-.835-1.356-.835-2.26 0-.738.207-1.391.622-1.96.42-.568.991-1.014 1.713-1.338.727-.323 1.551-.485 2.471-.485 1.296 0 2.313.284 3.051.852.745.568 1.273 1.318 1.586 2.25Zm14.959 10.433c-1.091 0-2.054-.276-2.889-.827-.835-.557-1.489-1.341-1.96-2.352-.472-1.017-.708-2.219-.708-3.605 0-1.375.236-2.569.708-3.58.471-1.011 1.128-1.793 1.969-2.344.84-.55 1.812-.826 2.914-.826.853 0 1.526.142 2.02.426.5.278.881.596 1.142.954.267.353.475.642.622.87h.171v-6.444h2.011V106h-1.943v-2.011h-.239c-.147.238-.358.539-.63.903-.273.358-.662.679-1.168.963-.506.279-1.179.418-2.02.418Zm.273-1.807c.807 0 1.489-.21 2.045-.631.557-.426.981-1.014 1.27-1.764.29-.756.435-1.628.435-2.617 0-.977-.142-1.832-.426-2.565-.284-.738-.705-1.312-1.262-1.721-.556-.415-1.244-.623-2.062-.623-.852 0-1.563.22-2.131.657-.562.431-.986 1.02-1.27 1.764-.278.739-.417 1.568-.417 2.489 0 .931.142 1.778.426 2.539.29.756.716 1.358 1.278 1.807.568.443 1.273.665 2.114.665ZM292.7 106V92.91h2.012V106H292.7Zm1.023-15.273a1.43 1.43 0 0 1-1.014-.4 1.285 1.285 0 0 1-.418-.963c0-.375.139-.696.418-.963a1.43 1.43 0 0 1 1.014-.401c.392 0 .727.133 1.006.4.284.268.426.589.426.964s-.142.696-.426.963c-.279.267-.614.4-1.006.4ZM298.396 106V92.91h1.943v1.976h.136c.239-.647.671-1.173 1.296-1.576a3.81 3.81 0 0 1 2.113-.606c.148 0 .333.003.554.01.222.005.389.013.503.025v2.045a5.887 5.887 0 0 0-.469-.077 4.598 4.598 0 0 0-.758-.06c-.637 0-1.205.134-1.705.401a3.025 3.025 0 0 0-1.176 1.091 2.94 2.94 0 0 0-.426 1.577V106h-2.011Zm14.019.273c-1.261 0-2.349-.279-3.264-.835-.909-.563-1.611-1.347-2.105-2.353-.488-1.011-.733-2.187-.733-3.528 0-1.341.245-2.523.733-3.546.494-1.028 1.182-1.83 2.063-2.403.886-.58 1.92-.87 3.102-.87.682 0 1.355.114 2.02.341.665.228 1.27.597 1.815 1.109.546.505.98 1.176 1.304 2.01.324.836.486 1.865.486 3.086v.852h-10.091v-1.738h8.045c0-.739-.147-1.398-.443-1.977a3.332 3.332 0 0 0-1.244-1.373c-.534-.335-1.165-.502-1.892-.502-.801 0-1.494.198-2.08.596a3.933 3.933 0 0 0-1.338 1.534 4.513 4.513 0 0 0-.468 2.028v1.16c0 .988.17 1.826.511 2.514.347.682.827 1.202 1.44 1.56.614.352 1.327.528 2.139.528.529 0 1.006-.074 1.432-.222.432-.153.804-.38 1.117-.682.312-.306.554-.687.724-1.142l1.943.546a4.303 4.303 0 0 1-1.031 1.739 5.033 5.033 0 0 1-1.79 1.159c-.71.272-1.508.409-2.395.409Zm13.799 0c-1.227 0-2.284-.29-3.171-.87-.886-.579-1.568-1.377-2.045-2.394-.477-1.018-.716-2.179-.716-3.486 0-1.33.244-2.503.733-3.52.494-1.023 1.182-1.821 2.062-2.395.887-.58 1.921-.87 3.103-.87.92 0 1.75.171 2.488.512.739.34 1.344.818 1.816 1.432.471.614.764 1.33.878 2.147h-2.012c-.153-.596-.494-1.124-1.023-1.585-.522-.466-1.227-.698-2.113-.698-.784 0-1.472.204-2.063.613-.585.403-1.042.974-1.372 1.713-.324.733-.486 1.594-.486 2.582 0 1.012.159 1.893.478 2.643.323.75.778 1.332 1.363 1.747.591.415 1.284.622 2.08.622.523 0 .997-.091 1.423-.273a2.933 2.933 0 0 0 1.082-.784 3 3 0 0 0 .631-1.227h2.012a4.66 4.66 0 0 1-.844 2.088c-.443.614-1.031 1.102-1.764 1.466-.728.358-1.574.537-2.54.537Zm13.781-13.364v1.705h-6.784v-1.705h6.784Zm-4.807-3.136h2.012v12.477c0 .568.082.994.247 1.278.17.279.386.466.647.563.268.091.549.136.844.136.222 0 .404-.011.546-.034l.341-.068.409 1.807a4.14 4.14 0 0 1-.571.153 4.2 4.2 0 0 1-.929.085 4.054 4.054 0 0 1-1.671-.366 3.312 3.312 0 0 1-1.346-1.116c-.353-.5-.529-1.131-.529-1.893V89.773Zm10.125-1.227V106h-2.011V88.546h2.011Zm4.98 22.363c-.341 0-.645-.028-.912-.085-.267-.051-.452-.102-.554-.154l.511-1.772c.489.125.921.17 1.296.136s.707-.202.997-.503c.295-.295.565-.775.809-1.44l.375-1.023-4.841-13.159h2.182l3.614 10.432h.136l3.614-10.432h2.182l-5.557 15c-.25.676-.56 1.236-.929 1.679a3.475 3.475 0 0 1-1.287.997c-.483.216-1.028.324-1.636.324Zm24.643-18v1.705h-7.057v-1.705h7.057ZM369.993 106V91.102c0-.75.176-1.375.528-1.875.353-.5.81-.875 1.372-1.125a4.342 4.342 0 0 1 1.782-.375c.494 0 .897.04 1.21.12.312.08.545.153.699.221l-.58 1.739a9.65 9.65 0 0 0-.426-.128 2.58 2.58 0 0 0-.699-.077c-.665 0-1.145.168-1.44.503-.29.335-.435.827-.435 1.474V106h-2.011Zm7.762 0V92.91h1.943v1.976h.137c.238-.647.67-1.173 1.295-1.576a3.814 3.814 0 0 1 2.114-.606c.147 0 .332.003.554.01.221.005.389.013.502.025v2.045a5.917 5.917 0 0 0-.468-.077 4.62 4.62 0 0 0-.759-.06c-.636 0-1.204.134-1.704.401a3.021 3.021 0 0 0-1.177 1.091 2.94 2.94 0 0 0-.426 1.577V106h-2.011Zm13.849.273c-1.181 0-2.218-.282-3.11-.844-.887-.563-1.58-1.349-2.08-2.361-.494-1.011-.741-2.193-.741-3.545 0-1.364.247-2.554.741-3.571.5-1.017 1.193-1.807 2.08-2.37.892-.562 1.929-.843 3.11-.843 1.182 0 2.216.28 3.103.843.892.563 1.585 1.353 2.079 2.37.5 1.017.75 2.207.75 3.57 0 1.353-.25 2.535-.75 3.546-.494 1.012-1.187 1.798-2.079 2.361-.887.562-1.921.844-3.103.844Zm0-1.807c.898 0 1.637-.23 2.216-.69.58-.461 1.009-1.066 1.287-1.816.279-.75.418-1.562.418-2.437 0-.875-.139-1.69-.418-2.446-.278-.756-.707-1.367-1.287-1.833-.579-.466-1.318-.698-2.216-.698-.897 0-1.636.232-2.216.698-.579.466-1.008 1.077-1.286 1.833a7.007 7.007 0 0 0-.418 2.446c0 .875.139 1.687.418 2.437.278.75.707 1.355 1.286 1.816.58.46 1.319.69 2.216.69Zm9.003 1.534V92.91h1.943v2.044h.17a3.291 3.291 0 0 1 1.321-1.627c.608-.392 1.338-.588 2.191-.588.863 0 1.582.196 2.156.588.579.386 1.031.929 1.355 1.627h.136a3.81 3.81 0 0 1 1.509-1.61c.67-.404 1.474-.605 2.412-.605 1.17 0 2.128.366 2.872 1.1.744.726 1.116 1.86 1.116 3.4V106h-2.011v-8.761c0-.966-.264-1.657-.793-2.071-.528-.415-1.15-.623-1.866-.623-.921 0-1.634.279-2.139.836-.506.55-.759 1.25-.759 2.096V106h-2.045v-8.966c0-.744-.242-1.344-.725-1.798-.483-.46-1.105-.69-1.866-.69-.523 0-1.012.139-1.466.417a3.149 3.149 0 0 0-1.091 1.16c-.273.488-.409 1.053-.409 1.695V106h-2.011Zm28.598 0h-2.216l6.409-17.454h2.182L441.989 106h-2.216l-5.216-14.693h-.137L429.205 106Zm.818-6.818h8.932v1.875h-8.932v-1.875Zm14.412 11.727v-18h1.943v2.08h.238c.148-.228.353-.517.614-.87.267-.358.648-.676 1.142-.954.5-.284 1.176-.426 2.029-.426 1.102 0 2.073.275 2.914.826.841.552 1.498 1.333 1.969 2.344.472 1.011.707 2.205.707 3.58 0 1.386-.235 2.588-.707 3.605-.471 1.011-1.125 1.795-1.96 2.352-.835.551-1.798.827-2.889.827-.841 0-1.515-.139-2.02-.418-.506-.284-.895-.605-1.168-.963a13.171 13.171 0 0 1-.631-.903h-.17v6.92h-2.011Zm1.977-11.455c0 .989.145 1.861.435 2.617.289.75.713 1.338 1.269 1.764.557.421 1.239.631 2.046.631.841 0 1.543-.222 2.105-.665.568-.449.994-1.051 1.278-1.807.29-.761.435-1.608.435-2.54 0-.92-.142-1.75-.426-2.488-.278-.744-.702-1.332-1.27-1.764-.562-.438-1.27-.656-2.122-.656-.818 0-1.506.207-2.063.622-.556.409-.977.983-1.261 1.721-.284.733-.426 1.588-.426 2.566Zm17.966 6.819c-1.182 0-2.219-.282-3.111-.844-.886-.563-1.579-1.349-2.079-2.361-.495-1.011-.742-2.193-.742-3.545 0-1.364.247-2.554.742-3.571.5-1.017 1.193-1.807 2.079-2.37.892-.562 1.929-.843 3.111-.843 1.182 0 2.216.28 3.102.843.892.563 1.585 1.353 2.08 2.37.5 1.017.75 2.207.75 3.57 0 1.353-.25 2.535-.75 3.546-.495 1.012-1.188 1.798-2.08 2.361-.886.562-1.92.844-3.102.844Zm0-1.807c.898 0 1.636-.23 2.216-.69.579-.461 1.008-1.066 1.287-1.816.278-.75.417-1.562.417-2.437a7.03 7.03 0 0 0-.417-2.446c-.279-.756-.708-1.367-1.287-1.833-.58-.466-1.318-.698-2.216-.698-.898 0-1.637.232-2.216.698-.58.466-1.009 1.077-1.287 1.833a7.03 7.03 0 0 0-.418 2.446c0 .875.14 1.687.418 2.437.278.75.707 1.355 1.287 1.816.579.46 1.318.69 2.216.69Zm11.013-15.92V106h-2.011V88.546h2.011Zm5.696 0V106h-2.012V88.546h2.012Zm9.002 17.727c-1.182 0-2.219-.282-3.111-.844-.886-.563-1.58-1.349-2.08-2.361-.494-1.011-.741-2.193-.741-3.545 0-1.364.247-2.554.741-3.571.5-1.017 1.194-1.807 2.08-2.37.892-.562 1.929-.843 3.111-.843 1.182 0 2.216.28 3.102.843.892.563 1.585 1.353 2.08 2.37.5 1.017.75 2.207.75 3.57 0 1.353-.25 2.535-.75 3.546-.495 1.012-1.188 1.798-2.08 2.361-.886.562-1.92.844-3.102.844Zm0-1.807c.898 0 1.636-.23 2.216-.69.579-.461 1.008-1.066 1.287-1.816.278-.75.417-1.562.417-2.437a7.03 7.03 0 0 0-.417-2.446c-.279-.756-.708-1.367-1.287-1.833-.58-.466-1.318-.698-2.216-.698-.898 0-1.637.232-2.216.698-.58.466-1.009 1.077-1.287 1.833a7.03 7.03 0 0 0-.418 2.446c0 .875.14 1.687.418 2.437.278.75.707 1.355 1.287 1.816.579.46 1.318.69 2.216.69Zm10.468 1.67c-.421 0-.781-.15-1.083-.451a1.477 1.477 0 0 1-.451-1.083c0-.42.15-.781.451-1.082a1.48 1.48 0 0 1 1.083-.452c.42 0 .781.151 1.082.452.301.301.452.662.452 1.082 0 .279-.071.534-.213.767a1.597 1.597 0 0 1-.554.563 1.464 1.464 0 0 1-.767.204Z"/><rect width="333" height="59" x="39" y="131" fill="#121414" rx="14.683"/><g fill="#fff" clip-path="url(#clip1_1879_3597)"><path d="M127.931 153.306a.412.412 0 0 1 .779-.02l.611 1.651a4.861 4.861 0 0 0 2.872 2.873l1.74.644a.411.411 0 0 1 0 .771l-1.74.644a4.86 4.86 0 0 0-2.872 2.872l-.644 1.74a.411.411 0 0 1-.772 0l-.644-1.74a4.86 4.86 0 0 0-2.872-2.872l-1.715-.635a.41.41 0 0 1 .006-.773l1.796-.634a4.862 4.862 0 0 0 3.022-3.135l.433-1.386ZM137.367 149.645a.206.206 0 0 1 .389-.01l.345.933c.265.717.83 1.281 1.547 1.547l.977.361a.206.206 0 0 1 0 .386l-.977.361a2.621 2.621 0 0 0-1.547 1.547l-.361.977a.206.206 0 0 1-.386 0l-.362-.977a2.622 2.622 0 0 0-1.546-1.547l-.965-.357a.205.205 0 0 1 .003-.386l1.008-.356a2.617 2.617 0 0 0 1.628-1.688l.247-.791ZM137.367 160.958a.205.205 0 0 1 .389-.01l.345.932c.265.717.83 1.282 1.547 1.547l.977.361a.206.206 0 0 1 0 .386l-.977.362a2.617 2.617 0 0 0-1.547 1.546l-.361.977a.205.205 0 0 1-.386 0l-.362-.977a2.618 2.618 0 0 0-1.546-1.546l-.965-.357a.206.206 0 0 1 .003-.387l1.008-.356a2.617 2.617 0 0 0 1.628-1.688l.247-.79Z"/></g><path fill="#fff" d="M148.067 168.5h-3.098l5.639-16.018h3.583l5.647 16.018h-3.098l-4.278-12.733h-.125l-4.27 12.733Zm.101-6.28h8.447v2.33h-8.447v-2.33Zm22.956-2.558-2.581.282a2.074 2.074 0 0 0-.384-.736 1.908 1.908 0 0 0-.719-.555c-.303-.141-.673-.211-1.111-.211-.589 0-1.084.128-1.486.383-.396.256-.592.587-.586.993-.006.35.122.634.383.853.266.219.704.399 1.314.54l2.049.438c1.137.245 1.981.633 2.534 1.165.558.532.839 1.228.845 2.088a3.27 3.27 0 0 1-.665 2.002c-.433.574-1.035 1.022-1.807 1.346-.772.323-1.658.485-2.659.485-1.47 0-2.654-.308-3.551-.923-.897-.621-1.431-1.484-1.603-2.589l2.761-.266c.125.542.391.952.797 1.228.407.276.936.414 1.588.414.673 0 1.212-.138 1.619-.414.412-.276.618-.618.618-1.025 0-.344-.133-.628-.399-.852-.261-.224-.667-.396-1.22-.516l-2.049-.431c-1.153-.239-2.005-.643-2.558-1.212-.552-.573-.826-1.298-.821-2.174-.005-.741.196-1.382.602-1.924.412-.548.983-.97 1.713-1.267.735-.303 1.583-.454 2.542-.454 1.408 0 2.516.3 3.324.9.813.599 1.317 1.41 1.51 2.432Zm5.173 5.068-.008-3.418h.454l4.317-4.825h3.309l-5.311 5.912h-.586l-2.175 2.331Zm-2.581 3.77v-16.018h2.832V168.5h-2.832Zm7.54 0-3.911-5.467 1.909-1.994 5.389 7.461h-3.387Zm12.645 0h-3.097l5.639-16.018h3.582l5.647 16.018h-3.097l-4.279-12.733h-.125l-4.27 12.733Zm.102-6.28h8.447v2.33h-8.447v-2.33Zm13.654 10.785v-16.518h2.784v1.986h.164c.146-.292.352-.602.618-.931.266-.333.626-.617 1.079-.852.454-.24 1.033-.36 1.737-.36.928 0 1.765.237 2.51.712.751.469 1.346 1.165 1.784 2.088.443.918.664 2.044.664 3.379 0 1.319-.216 2.44-.649 3.363-.433.923-1.022 1.627-1.767 2.112-.746.485-1.591.727-2.535.727-.688 0-1.259-.115-1.712-.344a3.474 3.474 0 0 1-1.095-.829 5.389 5.389 0 0 1-.634-.931h-.117v6.398h-2.831Zm2.776-10.512c0 .777.11 1.458.329 2.042.224.584.544 1.04.962 1.368.422.324.933.485 1.533.485.625 0 1.149-.167 1.572-.5.422-.339.74-.801.954-1.385.219-.589.328-1.259.328-2.01 0-.745-.107-1.408-.32-1.986-.214-.579-.532-1.033-.955-1.361-.422-.329-.949-.493-1.579-.493-.605 0-1.119.159-1.541.477-.423.318-.743.764-.962 1.338-.214.573-.321 1.248-.321 2.025Zm16.229 6.242c-1.173 0-2.19-.258-3.05-.775a5.255 5.255 0 0 1-2.002-2.166c-.47-.928-.704-2.013-.704-3.254s.234-2.328.704-3.261a5.248 5.248 0 0 1 2.002-2.175c.86-.516 1.877-.774 3.05-.774 1.173 0 2.19.258 3.05.774a5.194 5.194 0 0 1 1.995 2.175c.474.933.712 2.02.712 3.261s-.238 2.326-.712 3.254a5.2 5.2 0 0 1-1.995 2.166c-.86.517-1.877.775-3.05.775Zm.016-2.269c.636 0 1.168-.174 1.595-.524.428-.354.746-.829.955-1.423.213-.594.32-1.257.32-1.987 0-.735-.107-1.4-.32-1.994-.209-.6-.527-1.077-.955-1.431-.427-.355-.959-.532-1.595-.532-.652 0-1.194.177-1.627.532-.428.354-.748.831-.962 1.431-.209.594-.313 1.259-.313 1.994 0 .73.104 1.393.313 1.987.214.594.534 1.069.962 1.423.433.35.975.524 1.627.524Zm10.975-13.984V168.5h-2.831v-16.018h2.831Zm5.743 0V168.5h-2.832v-16.018h2.832Zm8.151 16.253c-1.173 0-2.19-.258-3.05-.775a5.255 5.255 0 0 1-2.002-2.166c-.469-.928-.704-2.013-.704-3.254s.235-2.328.704-3.261a5.248 5.248 0 0 1 2.002-2.175c.86-.516 1.877-.774 3.05-.774 1.174 0 2.19.258 3.051.774a5.198 5.198 0 0 1 1.994 2.175c.475.933.712 2.02.712 3.261s-.237 2.326-.712 3.254a5.204 5.204 0 0 1-1.994 2.166c-.861.517-1.877.775-3.051.775Zm.016-2.269c.636 0 1.168-.174 1.596-.524.427-.354.745-.829.954-1.423.214-.594.32-1.257.32-1.987 0-.735-.106-1.4-.32-1.994-.209-.6-.527-1.077-.954-1.431-.428-.355-.96-.532-1.596-.532-.652 0-1.194.177-1.627.532-.427.354-.748.831-.962 1.431-.208.594-.313 1.259-.313 1.994 0 .73.105 1.393.313 1.987.214.594.535 1.069.962 1.423.433.35.975.524 1.627.524Z"/><path fill="#BEBEBB" d="M259.723 160.5v-10.679h1.23v3.942h.105c.09-.139.215-.316.375-.532a2.2 2.2 0 0 1 .699-.584c.306-.173.719-.26 1.241-.26.674 0 1.268.168 1.783.506.514.337.916.815 1.204 1.433.289.619.433 1.349.433 2.19 0 .849-.144 1.584-.433 2.206-.288.619-.688 1.098-1.199 1.439-.511.337-1.1.506-1.767.506-.515 0-.927-.085-1.236-.256a2.277 2.277 0 0 1-.715-.589 7.88 7.88 0 0 1-.385-.553h-.146v1.231h-1.189Zm1.209-4.004c0 .604.089 1.138.266 1.6.178.459.437.819.777 1.08.341.257.758.385 1.252.385.514 0 .943-.135 1.288-.406.347-.275.608-.643.782-1.106.177-.465.266-.983.266-1.553 0-.564-.087-1.071-.261-1.523a2.348 2.348 0 0 0-.777-1.079c-.344-.268-.777-.402-1.298-.402-.501 0-.921.127-1.262.381-.341.25-.598.601-.772 1.053-.174.448-.261.972-.261 1.57Zm11.101 4.171c-.771 0-1.437-.17-1.997-.511a3.427 3.427 0 0 1-1.287-1.439c-.299-.619-.449-1.339-.449-2.159 0-.82.15-1.543.449-2.169.302-.629.723-1.119 1.261-1.47.543-.355 1.175-.532 1.898-.532a3.8 3.8 0 0 1 1.236.208c.407.139.777.365 1.111.678.333.31.599.72.797 1.231.199.511.298 1.14.298 1.887v.522h-6.174v-1.064h4.922c0-.452-.09-.855-.271-1.21a2.044 2.044 0 0 0-.761-.839c-.327-.205-.713-.308-1.158-.308-.49 0-.914.122-1.272.365-.355.24-.627.553-.819.939a2.758 2.758 0 0 0-.286 1.241v.709c0 .605.104 1.117.312 1.538.213.417.506.735.882.954.375.216.811.323 1.308.323.324 0 .616-.045.876-.135.265-.094.492-.233.683-.417a1.9 1.9 0 0 0 .444-.699l1.188.334a2.63 2.63 0 0 1-.63 1.063 3.088 3.088 0 0 1-1.095.71c-.435.166-.923.25-1.466.25Zm8.672-8.176v1.043h-4.151v-1.043h4.151Zm-2.941-1.919h1.23v7.634c0 .347.051.608.152.782.104.17.236.285.396.344.163.056.335.083.516.083.136 0 .247-.006.334-.02l.208-.042.251 1.105c-.084.032-.2.063-.35.094a2.555 2.555 0 0 1-.568.052c-.348 0-.688-.074-1.022-.224a2.027 2.027 0 0 1-.824-.683c-.215-.306-.323-.692-.323-1.158v-7.967Zm7.148 10.116c-.507 0-.968-.096-1.381-.287a2.372 2.372 0 0 1-.986-.84c-.243-.368-.365-.813-.365-1.334 0-.459.091-.831.271-1.116.181-.289.423-.515.725-.678a3.818 3.818 0 0 1 1.001-.365c.369-.083.739-.15 1.111-.198.486-.063.881-.11 1.183-.141.306-.035.529-.092.668-.172.142-.08.214-.219.214-.417v-.042c0-.514-.141-.914-.423-1.199-.278-.285-.7-.428-1.267-.428-.587 0-1.048.129-1.382.386-.333.257-.568.532-.703.824l-1.168-.417c.208-.487.486-.866.834-1.137a3.12 3.12 0 0 1 1.147-.573 4.728 4.728 0 0 1 1.231-.167c.257 0 .552.031.886.094.337.059.662.182.975.37.316.188.579.471.787.85.209.379.313.886.313 1.522v5.277h-1.23v-1.085h-.063c-.083.174-.222.36-.417.558a2.4 2.4 0 0 1-.777.506c-.323.139-.718.209-1.184.209Zm.188-1.106c.487 0 .897-.095 1.231-.286a1.954 1.954 0 0 0 1.022-1.695v-1.126c-.053.062-.167.12-.345.172a5.882 5.882 0 0 1-.604.13 27.04 27.04 0 0 1-1.179.157c-.32.041-.619.109-.897.203-.274.09-.497.228-.667.412-.167.181-.25.427-.25.74 0 .428.158.751.474.97.32.216.725.323 1.215.323Z"/><path fill="#FF642D" fill-opacity=".7" d="M616.763 130.959c16.989 0 30.762 13.773 30.762 30.763a30.619 30.619 0 0 1-3.891 14.983c-1.103 1.977-.77 4.444.851 6.026l7.058 6.889c1.071 1.046.33 2.864-1.168 2.864h-33.612c-16.99 0-30.763-13.773-30.763-30.762 0-16.99 13.786-30.763 30.763-30.763Z" opacity=".5"/><rect width="7.725" height="7.725" x="598.061" y="158.725" fill="#BB3506" rx="3.862"/><rect width="7.725" height="7.725" x="612.093" y="158.725" fill="#BB3506" rx="3.862"/><rect width="7.725" height="7.725" x="626.125" y="158.725" fill="#BB3506" rx="3.862"/></g><defs><linearGradient id="paint0_linear_1879_3597" x1="638" x2="638" y1="0" y2="279.22" gradientUnits="userSpaceOnUse"><stop offset=".118" stop-color="#F15A24"/><stop offset="1" stop-color="#8B3415"/></linearGradient><linearGradient id="paint1_linear_1879_3597" x1="1008.35" x2="1033.11" y1="119.126" y2="241.646" gradientUnits="userSpaceOnUse"><stop offset=".478" stop-color="#1B1B18"/><stop offset="1" stop-color="#2F2D27"/></linearGradient><linearGradient id="paint2_linear_1879_3597" x1="1099.58" x2="1074.81" y1="119.084" y2="241.604" gradientUnits="userSpaceOnUse"><stop offset=".478" stop-color="#1B1B18"/><stop offset="1" stop-color="#2F2D27"/></linearGradient><linearGradient id="paint3_linear_1879_3597" x1="1051.54" x2="1051.13" y1="30.416" y2="105.825" gradientUnits="userSpaceOnUse"><stop stop-color="#F4C391"/><stop offset=".93" stop-color="#F7A86F"/></linearGradient><linearGradient id="paint4_linear_1879_3597" x1="1052.5" x2="1051.91" y1="92.888" y2="112.321" gradientUnits="userSpaceOnUse"><stop stop-color="#fff" stop-opacity="0"/><stop offset="1" stop-color="#fff" stop-opacity=".2"/></linearGradient><linearGradient id="paint5_linear_1879_3597" x1="1087.85" x2="1087.85" y1="60.591" y2="25.719" gradientUnits="userSpaceOnUse"><stop offset=".15" stop-color="#fff"/><stop offset="1" stop-color="#262626"/></linearGradient><linearGradient id="paint6_linear_1879_3597" x1="1019.48" x2="1019.47" y1="63.171" y2="27.255" gradientUnits="userSpaceOnUse"><stop offset=".17" stop-color="#fff"/><stop offset="1" stop-color="#262626"/></linearGradient><linearGradient id="paint7_linear_1879_3597" x1="1048.08" x2="1048.42" y1="31.196" y2="4.913" gradientUnits="userSpaceOnUse"><stop stop-color="#fff"/><stop offset="1" stop-color="#585858"/></linearGradient><linearGradient id="paint8_linear_1879_3597" x1="1025.57" x2="1025.57" y1="32.429" y2="66.856" gradientUnits="userSpaceOnUse"><stop stop-color="#F19E5A"/><stop offset=".87" stop-color="#F4C391"/></linearGradient><linearGradient id="paint9_linear_1879_3597" x1="1078.22" x2="1078.22" y1="32.429" y2="66.856" gradientUnits="userSpaceOnUse"><stop stop-color="#F19E5A"/><stop offset=".87" stop-color="#F4C391"/></linearGradient><linearGradient id="paint10_linear_1879_3597" x1="1015.49" x2="1045.14" y1="27.807" y2="3.131" gradientUnits="userSpaceOnUse"><stop offset=".05" stop-color="#fff"/><stop offset="1" stop-color="#585858"/></linearGradient><clipPath id="clip0_1879_3597"><path fill="#fff" d="M0 0h1276v212H0z"/></clipPath><clipPath id="clip1_1879_3597"><path fill="#fff" d="M120.57 145.5h22.025v22.025H120.57z"/></clipPath></defs></svg>